<?xml version="1.0" ?><svg viewBox="0 0 550 550" xmlns="http://www.w3.org/2000/svg" xmlns:xlink="http://www.w3.org/1999/xlink"><defs><radialGradient cx="285.27" cy="270.64" gradientUnits="userSpaceOnUse" id="radial-gradient" r="233.87"><stop offset="0.88" stop-color="#fff"/><stop offset="1"/></radialGradient><radialGradient cx="279.56" cy="279.77" gradientUnits="userSpaceOnUse" id="radial-gradient-2" r="204.6"><stop offset="0.92" stop-color="#fff"/><stop offset="1"/></radialGradient><radialGradient cx="347.62" cy="355.21" fx="658.4945546426623" fy="587.205401025844" gradientUnits="userSpaceOnUse" id="radial-gradient-3" r="387.9"><stop offset="0.21" stop-color="#fff"/><stop offset="0.4" stop-color="#d3d3d3"/><stop offset="0.67" stop-color="#9b9b9b"/><stop offset="0.88" stop-color="#787878"/><stop offset="0.98" stop-color="#6b6b6b"/></radialGradient><linearGradient gradientUnits="userSpaceOnUse" id="New_Gradient_Swatch_1" x1="25.28" x2="536.53" y1="284.69" y2="284.69"><stop offset="0" stop-color="#fff"/><stop offset="0.22"/><stop offset="0.38" stop-color="#c1c0c0"/><stop offset="0.72" stop-color="#212121"/><stop offset="0.98" stop-color="#d9dee2"/></linearGradient></defs><title/><g data-name="Layer 54" id="Layer_54"><path d="M280.23,47C151.71,47,47.5,151.24,47.5,279.77S151.71,512.49,280.23,512.49,513,408.3,513,279.77,408.76,47,280.23,47Zm-.67,419.8c-103.31,0-187.06-83.76-187.06-187.06S176.25,92.71,279.56,92.71A187,187,0,0,1,466.62,279.77C466.62,383.07,382.88,466.83,279.56,466.83Z" style="fill:url(#radial-gradient)"/><path d="M279.56,75.17c-113,0-204.6,91.6-204.6,204.6s91.6,204.6,204.6,204.6,204.6-91.6,204.6-204.6S392.56,75.17,279.56,75.17Zm0,391.66c-103.31,0-187.06-83.76-187.06-187.06S176.25,92.71,279.56,92.71A187,187,0,0,1,466.62,279.77C466.62,383.07,382.88,466.83,279.56,466.83Z" style="fill:url(#radial-gradient-2)"/><circle cx="280.23" cy="279.77" r="205.27" style="fill:none;stroke:#fff;stroke-miterlimit:10;stroke-width:2.5416006308086025px"/><path d="M534.48,246.12c-.27-16.06-12.63-16.35-12.63-16.35-1.89-.3-35.2-4.25-82.88-9-104.22-10.33-213.93-11.17-314.33-3-45.1,3.66-77.54,9.87-79,10.17-16.06,2.89-17.14,14.17-17.14,14.89-3.58,14.53-1.43,62.82,0,79.15,1.08,17.43,15.31,16,16,16.34,1.35.29,32.84,5.74,78.52,10.34,112.58,11.33,219.75,10.91,315.72.77,48.63-5.13,82.12-9.93,82.12-9.93C533.75,338.41,534,323,534,322.89,536.45,300.47,534.57,246.12,534.48,246.12Z" style="fill:url(#radial-gradient-3)"/><path d="M288.45,358.42a1651.67,1651.67,0,0,1-165.53-8.5c-44.36-4.46-76.61-9.92-78.66-10.36l-.11,0a3.94,3.94,0,0,0-.44,0c-12.75-.76-16-9.91-16.46-17.46-1.46-16.59-3.59-64.56,0-79.43.14-1.67,1.73-13,18.18-15.93.27-.06,32.76-6.43,79.1-10.19a1782.17,1782.17,0,0,1,314.56,3c45.81,4.54,80.12,8.56,82.88,9,1.27.09,13.5,1.32,13.77,17.6h-.11c.24,1.86.59,8.13.82,30,.17,14.91.09,35.11-1.17,46.83,0,4.69-2.62,16.82-14.29,17.81-.26,0-34,4.85-82.1,9.93A1435.11,1435.11,0,0,1,288.45,358.42ZM44.88,337.09c2.66.55,34.53,5.9,78.3,10.3,109.66,11.05,215.8,11.31,315.45.78,48.06-5.08,81.75-9.88,82.08-9.93,11.72-1,12-15.22,12-15.36,2.19-20.3.85-67.46.52-75.49h0l0-1.25c-.25-14.67-10.94-15.09-11.39-15.1l-.17,0c-1.61-.25-34.69-4.2-82.81-9a1778.88,1778.88,0,0,0-314.1-3c-46.18,3.75-78.52,10.09-78.82,10.15C30.46,232,29.79,242.73,29.79,242.84l0,.29c-3.51,14.27-1.37,62.72,0,78.74.89,14.31,10.81,14.91,14.07,15.1A5.05,5.05,0,0,1,44.88,337.09Z" style="fill:url(#New_Gradient_Swatch_1)"/><path d="M404,263c-2.79-9.44-15.35-9-24.06-8.73-8.15.2-17.56-.13-26,.07a22.47,22.47,0,0,0-9.69,2.3,11.09,11.09,0,0,0-5.86,7.92c-2.12,14.48-.85,29.42-.78,44.15.05,2.54,1.87,4.24,4.9,3.79a30.86,30.86,0,0,1,8.26,0c2.79.21,3.87-1.31,3.81-3.85a156.49,156.49,0,0,1,.27-19,301,301,0,0,1,33.32.07c1.32,8,.06,14.7.77,22.42a141.38,141.38,0,0,0,15.94-.08c0-7.8.54-15.34.09-23.11C404.42,280.2,406.56,271.77,404,263Zm-16.27,13.89c-10.6.27-21.93.42-32.85-.1-.34-12.39,12.31-10,20.35-10.32C381,266.2,389.65,268,387.68,276.86Z"/><path d="M280.23,271.84c15.86,6.7,31.72,10.34,46.15,18.51,3.18,1.76,3.18,6.83,3.37,10.12.2,3.52-2,7.41-5.11,9.83-2.28,1.8-5.34,2-8.28,2q-28.53,0-57,0c-.88-3.81-.23-8-.37-12.17,15.72-.06,30.14-.09,46.24,0,3.11,0,2.92-4,0-5-12.68-4.08-23.66-8.78-36.05-12.95-4.39-1.51-8-4.67-9.14-9.53-.83-3-1.49-4.92-.41-8.17,5-14.61,21.79-9.53,34-10.08,11.39-.51,24.26.06,35.77-.14.69,4.52.24,7.94.2,12.39-16.26,0-31.27.16-47.82,0C278.42,266.64,277.21,270.56,280.23,271.84Z"/><path d="M180.59,300.14c15.74-.07,30.23-.07,46.29,0,3.11,0,2.84-4,0-5-12.66-4.06-23.6-8.83-36-12.95-4.41-1.51-8-4.68-9.2-9.53-.74-3-1.47-4.92-.38-8.17,5-14.61,21.8-9.53,34-10.1,11.34-.49,24.24.08,35.82-.14a60,60,0,0,1,0,12.35c-15.9.22-31.58.05-47.44.11a5.63,5.63,0,0,0-3.38,1c-1.9,1.23-.14,3.89,1.74,4.36,11.33,2.89,21.55,9.29,32.91,11.7,12,2.58,24,15.47,10.91,27-1.24,1.1-1.24.07-2.67.94s-2.39.48-3.6.48c-19.61.16-39,0-58.67.09C180.15,308.48,180.86,304.28,180.59,300.14Z"/><path d="M172.88,312.1c-6.07.52-10.34-.11-16.7.34-.35-19.24-.08-38.66-.08-58a156.54,156.54,0,0,1,16.78,0Q173.06,283.28,172.88,312.1Z"/><path d="M113.24,303.81c-4.82-10.23-10.09-19.22-14.81-29.58-1.1-2.36-5.09-2.73-5.24-.06-.45,11.89-.12,22.62-.12,34.45,0,2.35-.47,4.19-3.5,3.85a19,19,0,0,0-6.69,0c-3.33.52-4.48-1.2-4.38-3.82.27-13.86.14-27.17,0-40.81,0-3.8.78-7.74,4-10a20,20,0,0,1,18.56-2.13c4.09,1.46,6.81,4.78,8.71,8.73,4.86,10.41,10,18.95,15.33,30.12,1.82,3.83,6.83,2.18,6.56-2-.81-13.4-.09-24.87-.22-37.94,5.27-.2,9.28-.2,14.49,0,.11,15.21.06,30.58.06,45.76,0,3.2-1.42,6.7-3.92,8.45C133.58,314.87,118,313.93,113.24,303.81Z"/><path d="M479.7,307.11c-7.24,7.48-23.65,7.82-29.47-1.64-6.17-10.08-10.68-21.05-16.41-30.92-.71-1.26-1.71-3.09-3.09-2.64-1.63.52-2.32,2.42-2.32,4.08-.12,12,.12,24.13,0,36.07-5.08.56-8.87,0-14.25.34-.17-11.42-.34-23.34,0-34.74.21-6-1.79-12.84,2-17.71,4.51-5.72,12.83-6.48,19.64-4.64,4.28,1.21,7.58,4.8,9.59,8.95,5.15,10.61,10.85,20.6,16.33,31.29,1.27,2.55,5.53,1.44,5.44-1.52-.27-13.58.05-26.13-.08-39.49,5.15,0,9.53-.31,14.59.16.27,14.62,0,29.46.15,44C481.81,301.53,481.59,305.2,479.7,307.11Z"/></g></svg>